<?xml version="1.0" encoding="UTF-8"?><svg id="Layer_1" xmlns="http://www.w3.org/2000/svg" viewBox="0 0 240.95 94.35"><defs><style>.cls-1{fill:#fff;}</style></defs><g id="ENEA"><path class="cls-1" d="M227.57,0h-41.61l-12.96,93.94h26.69l1.39-16.17h9.76l1.67,16.17h28.43L227.57,0Zm-24.53,55.33c.42-8.22,1.81-25.79,2.37-35.26h1.26c.56,7.39,1.53,27.32,1.95,35.26h-5.58Z"/><polygon class="cls-1" points="172.01 73.32 149.32 73.32 149.32 56.31 174.35 56.31 177.22 35.54 149.32 35.54 149.32 20.77 179.26 20.77 182.12 0 122.42 0 122.42 93.94 169.16 93.94 172.01 73.32"/><path class="cls-1" d="M56.08,93.94V0h30.57c2.26,10.97,8.01,37.99,8.64,41.48h.76c-.24-13.63-.03-41.48-.03-41.48h22.58V93.94h-28.27c-2.99-11.3-10.19-39.07-10.82-42.41h-.89l.14,42.41h-22.68Z"/><polygon class="cls-1" points="52.27 56.31 26.9 56.31 26.9 73.32 52.27 73.32 52.27 93.94 0 93.94 0 0 52.27 0 52.27 20.77 26.9 20.77 26.9 35.54 52.27 35.54 52.27 56.31"/></g></svg>